D:\school\WTK\thesis\model\3dpredictsim\Results\Batchsim_tmt_linear_v2\Pog_s1_tmt_bCst_d05_k1000_ig24_pas_GRF.mot
nRows=25
nColumns=19

name D:\school\WTK\thesis\model\3dpredictsim\Results\Batchsim_tmt_linear_v2\Pog_s1_tmt_bCst_d05_k1000_ig24_pas_GRF.mot
datacolumns 19
datarows 25
range 0.0000000000 0.2579064470
endheader
time 	ground_force_vx	ground_force_vy	ground_force_vz	ground_force_px	ground_force_py	ground_force_pz	1_ground_force_vx	1_ground_force_vy	1_ground_force_vz	1_ground_force_px	1_ground_force_py	1_ground_force_pz	ground_torque_x	ground_torque_y	ground_torque_z	1_ground_torque_x	1_ground_torque_y	1_ground_torque_z
        0.0000000000	      -81.2478440286	       61.2448027695	       15.9684819137	        0.1582350947	        0.0000000000	        0.0454800926	      115.5802206011	      484.3248031436	        2.7675320130	       -0.3503447484	        0.0000000000	       -0.0483760649	        0.0000000000	        0.0000000000	        0.0000000000	        0.0000000000	        0.0000000000	        0.0000000000	
        0.0107461020	     -140.0838568267	      139.2168836487	       40.9864788953	        0.1666190072	        0.0000000000	        0.0440210249	       83.7041272722	      389.7628563860	       -2.8390145789	       -0.3375613313	        0.0000000000	       -0.0466206112	        0.0000000000	        0.0000000000	        0.0000000000	        0.0000000000	        0.0000000000	        0.0000000000	
        0.0214922039	      -59.3335018695	      286.0309938630	       17.8045801782	        0.1733561680	        0.0000000000	        0.0426818144	       47.4371257719	      285.5925064314	       -5.8215394689	       -0.3169197598	        0.0000000000	       -0.0433949851	        0.0000000000	        0.0000000000	        0.0000000000	        0.0000000000	        0.0000000000	        0.0000000000	
        0.0322383059	      -56.7502980687	      462.2580239454	       -0.1065946788	        0.1780170214	        0.0000000000	        0.0432409828	       17.4120080090	      196.6262480945	       -6.3656351690	       -0.2877048059	        0.0000000000	       -0.0378212945	        0.0000000000	        0.0000000000	        0.0000000000	        0.0000000000	        0.0000000000	        0.0000000000	
        0.0429844078	      -94.7749660423	      693.2670742115	      -10.3960522530	        0.1878754516	        0.0000000000	        0.0462251222	        0.4507143964	      148.2535012645	      -11.0504967020	       -0.2677643319	        0.0000000000	       -0.0323980144	        0.0000000000	        0.0000000000	        0.0000000000	        0.0000000000	        0.0000000000	        0.0000000000	
        0.0537305098	     -122.4836582295	      858.4428892499	      -15.8825452299	        0.1950676991	        0.0000000000	        0.0483435237	       -1.3997030469	      120.6680194388	      -13.3336279329	       -0.2679121834	        0.0000000000	       -0.0328130593	        0.0000000000	        0.0000000000	        0.0000000000	        0.0000000000	        0.0000000000	        0.0000000000	
        0.0644766117	     -127.3032750076	      913.6458316418	      -17.7556551268	        0.2000184216	        0.0000000000	        0.0496650650	       -2.9927141495	       85.9706957786	      -14.4648196644	       -0.2673346751	        0.0000000000	       -0.0330288842	        0.0000000000	        0.0000000000	        0.0000000000	        0.0000000000	        0.0000000000	        0.0000000000	
        0.0752227137	     -119.4809949530	      892.1274171860	      -17.0388792491	        0.2038932280	        0.0000000000	        0.0505859808	       -6.6560527323	       47.9713378888	      -12.2212542868	       -0.2670436189	        0.0000000000	       -0.0331787288	        0.0000000000	        0.0000000000	        0.0000000000	        0.0000000000	        0.0000000000	        0.0000000000	
        0.0859688157	     -107.8440118689	      849.8045695224	      -16.1614396829	        0.2075536140	        0.0000000000	        0.0512658258	       -6.8300540343	       10.0759221822	       -2.9383711458	       -0.2685102076	        0.0000000000	       -0.0325412107	        0.0000000000	        0.0000000000	        0.0000000000	        0.0000000000	        0.0000000000	        0.0000000000	
        0.0967149176	      -96.1983361523	      816.2520797084	      -15.9262459620	        0.2117735358	        0.0000000000	        0.0519852781	        0.0036656386	       -0.0033354912	        0.0001604275	        0.0000000000	        0.0000000000	        0.0000000000	        0.0000000000	        0.0000000000	        0.0000000000	        0.0000000000	        0.0000000000	        0.0000000000	
        0.1074610196	      -89.1628526940	      795.8999955413	      -16.8028875973	        0.2175761545	        0.0000000000	        0.0524829707	        0.0001851262	       -0.0001433665	       -0.0000005159	        0.0000000000	        0.0000000000	        0.0000000000	        0.0000000000	        0.0000000000	        0.0000000000	        0.0000000000	        0.0000000000	        0.0000000000	
        0.1182071215	      -81.2173020118	      768.1732440416	      -16.7892960114	        0.2237291988	        0.0000000000	        0.0526488506	        0.0001880376	       -0.0001279083	       -0.0000040578	        0.0000000000	        0.0000000000	        0.0000000000	        0.0000000000	        0.0000000000	        0.0000000000	        0.0000000000	        0.0000000000	        0.0000000000	
        0.1289532235	      -73.0437852505	      731.8916464184	      -16.6108301262	        0.2297345721	        0.0000000000	        0.0527293124	        0.0031776654	       -0.0019561488	       -0.0000948531	        0.0000000000	        0.0000000000	        0.0000000000	        0.0000000000	        0.0000000000	        0.0000000000	        0.0000000000	        0.0000000000	        0.0000000000	
        0.1396993254	      -65.2644115544	      697.6214767217	      -16.3627869725	        0.2356818573	        0.0000000000	        0.0527045817	       -0.0249124009	        0.0141481027	        0.0008634543	        0.0000000000	        0.0000000000	        0.0000000000	        0.0000000000	        0.0000000000	        0.0000000000	        0.0000000000	        0.0000000000	        0.0000000000	
        0.1504454274	      -57.7990860326	      669.5440510921	      -16.5666824183	        0.2414064590	        0.0000000000	        0.0526736543	       -0.0418852114	        0.0222436438	        0.0015970587	        0.0000000000	        0.0000000000	        0.0000000000	        0.0000000000	        0.0000000000	        0.0000000000	        0.0000000000	        0.0000000000	        0.0000000000	
        0.1611915293	      -50.9246151572	      647.4938932905	      -17.0448180661	        0.2468046168	        0.0000000000	        0.0526335027	       -0.0281890043	        0.0141408882	        0.0011501758	        0.0000000000	        0.0000000000	        0.0000000000	        0.0000000000	        0.0000000000	        0.0000000000	        0.0000000000	        0.0000000000	        0.0000000000	
        0.1719376313	      -44.6781224924	      630.5774499863	      -17.3843951462	        0.2518718063	        0.0000000000	        0.0525767061	       -0.0214506707	        0.0102438815	        0.0009176391	        0.0000000000	        0.0000000000	        0.0000000000	        0.0000000000	        0.0000000000	        0.0000000000	        0.0000000000	        0.0000000000	        0.0000000000	
        0.1826837333	      -39.2883559864	      618.0704613247	      -17.8270101944	        0.2566375744	        0.0000000000	        0.0524952525	       -0.0208254208	        0.0095230311	        0.0009220514	        0.0000000000	        0.0000000000	        0.0000000000	        0.0000000000	        0.0000000000	        0.0000000000	        0.0000000000	        0.0000000000	        0.0000000000	
        0.1934298352	      -35.1571851792	      609.6111210165	      -18.4719943922	        0.2611191123	        0.0000000000	        0.0523835809	       -0.0258628019	        0.0113835191	        0.0011765629	        0.0000000000	        0.0000000000	        0.0000000000	        0.0000000000	        0.0000000000	        0.0000000000	        0.0000000000	        0.0000000000	        0.0000000000	
        0.2041759372	      -31.6479777869	      603.5256840217	      -19.3389529334	        0.2652787230	        0.0000000000	        0.0522404240	       -0.0392765340	        0.0167213424	        0.0018329619	        0.0000000000	        0.0000000000	        0.0000000000	        0.0000000000	        0.0000000000	        0.0000000000	        0.0000000000	        0.0000000000	        0.0000000000	
        0.2149220391	      -28.2957938230	      597.8770924498	      -19.9617552599	        0.2690995045	        0.0000000000	        0.0520865456	       -0.0684437968	        0.0283040716	        0.0032674743	        0.0000000000	        0.0000000000	        0.0000000000	        0.0000000000	        0.0000000000	        0.0000000000	        0.0000000000	        0.0000000000	        0.0000000000	
        0.2256681411	      -25.0110526255	      592.2181446365	      -20.3225806453	        0.2725982852	        0.0000000000	        0.0519359251	       -0.1280246789	        0.0516239124	        0.0062149123	        0.0000000000	        0.0000000000	        0.0000000000	        0.0000000000	        0.0000000000	        0.0000000000	        0.0000000000	        0.0000000000	        0.0000000000	
        0.2364142430	      -21.7361994834	      585.7313896444	      -20.5647338002	        0.2757763544	        0.0000000000	        0.0517893256	       -0.2413226521	        0.0952316518	        0.0118569697	        0.0000000000	        0.0000000000	        0.0000000000	        0.0000000000	        0.0000000000	        0.0000000000	        0.0000000000	        0.0000000000	        0.0000000000	
        0.2471603450	      -18.2582023334	      578.3918680553	      -20.6128167599	        0.2786716296	        0.0000000000	        0.0516514882	       -0.4370387185	        0.1693004488	        0.0216831842	        0.0000000000	        0.0000000000	        0.0000000000	        0.0000000000	        0.0000000000	        0.0000000000	        0.0000000000	        0.0000000000	        0.0000000000	
        0.2579064470	      -14.6742601748	      570.3599007721	      -20.5362828791	        0.2812904004	        0.0000000000	        0.0515166927	       -0.7448215919	        0.2838773376	        0.0371952496	        0.0000000000	        0.0000000000	        0.0000000000	        0.0000000000	        0.0000000000	        0.0000000000	        0.0000000000	        0.0000000000	        0.0000000000	
